<?xml version="1.0" encoding="UTF-8" ?>
<!DOCTYPE svg PUBLIC "-//W3C//DTD SVG 1.1//EN" "http://www.w3.org/Graphics/SVG/1.1/DTD/svg11.dtd">
<svg width="45pt" height="42pt" viewBox="0 0 45 42" version="1.1" xmlns="http://www.w3.org/2000/svg">
<path fill="#ffffff" d=" M 0.00 0.00 L 45.00 0.00 L 45.00 42.00 L 0.00 42.00 L 0.00 0.00 Z" />
<path fill="#deb24c" d=" M 14.13 5.66 C 18.95 5.46 23.78 5.53 28.60 5.63 C 27.08 9.90 22.73 12.32 19.89 15.70 L 18.85 16.14 C 18.71 15.50 18.43 14.20 18.29 13.55 C 20.03 12.20 21.55 10.60 23.15 9.09 C 23.93 8.39 24.71 7.69 25.49 6.99 C 22.05 6.99 18.58 6.66 15.16 7.18 C 12.79 9.60 11.81 13.13 10.11 16.04 C 9.77 16.70 9.43 17.36 9.09 18.02 C 9.30 18.03 9.71 18.04 9.92 18.05 C 11.59 18.36 13.26 18.65 14.94 18.92 C 13.63 22.88 12.20 26.79 10.96 30.77 C 16.02 25.89 21.43 21.26 25.68 15.63 L 26.05 15.13 L 27.81 16.03 L 26.39 17.99 C 26.35 18.04 26.27 18.14 26.23 18.19 C 26.19 18.24 26.11 18.33 26.06 18.37 C 25.74 18.68 25.10 19.30 24.78 19.61 C 19.00 24.02 14.91 30.38 8.62 34.13 C 10.02 29.47 11.78 24.92 13.36 20.31 C 11.23 20.34 9.11 20.16 6.98 20.12 C 8.36 14.89 12.06 10.63 14.13 5.66 Z" />
<path fill="#ffffff" d=" M 15.16 7.18 C 18.58 6.66 22.05 6.99 25.49 6.99 C 24.71 7.69 23.93 8.39 23.15 9.09 C 18.90 11.58 14.53 13.85 10.11 16.04 C 11.81 13.13 12.79 9.60 15.16 7.18 Z" />
<path fill="#fbf25a" d=" M 10.11 16.04 C 14.53 13.85 18.90 11.58 23.15 9.09 C 21.55 10.60 20.03 12.20 18.29 13.55 C 15.55 15.14 12.76 16.64 9.92 18.05 C 9.71 18.04 9.30 18.03 9.09 18.02 C 9.43 17.36 9.77 16.70 10.11 16.04 Z" />
<path fill="#f7dc00" d=" M 9.92 18.05 C 12.76 16.64 15.55 15.14 18.29 13.55 C 18.43 14.20 18.71 15.50 18.85 16.14 L 19.89 15.70 C 21.82 15.50 23.75 15.58 25.68 15.63 C 21.43 21.26 16.02 25.89 10.96 30.77 C 12.20 26.79 13.63 22.88 14.94 18.92 C 13.26 18.65 11.59 18.36 9.92 18.05 Z" />
<path fill="#d7b888" d=" M 26.23 18.19 C 26.27 18.14 26.35 18.04 26.39 17.99 C 26.35 18.04 26.27 18.14 26.23 18.19 Z" />
<path fill="#d7b888" d=" M 26.06 18.37 C 26.11 18.33 26.19 18.24 26.23 18.19 C 26.19 18.24 26.11 18.33 26.06 18.37 Z" />
<path fill="#deb24c" d=" M 26.72 19.77 C 29.75 16.93 34.40 18.45 36.48 21.65 C 36.47 22.57 36.47 24.41 36.46 25.33 C 35.50 26.60 34.74 28.06 33.50 29.09 C 32.82 29.26 31.45 29.59 30.77 29.76 C 30.35 29.79 29.52 29.85 29.11 29.88 L 27.68 28.79 C 24.88 26.83 23.44 21.97 26.72 19.77 Z" />
<path fill="#d0cfca" d=" M 8.62 34.13 C 14.91 30.38 19.00 24.02 24.78 19.61 C 23.38 22.74 20.28 24.55 18.06 27.03 C 15.39 29.39 13.30 32.53 10.18 34.29 C 9.79 34.25 9.01 34.17 8.62 34.13 Z" />
<path fill="#f2e1ab" d=" M 26.49 20.63 C 27.73 20.35 28.97 20.05 30.20 19.74 C 30.56 20.38 31.28 21.65 31.64 22.29 C 30.53 24.50 28.39 24.80 26.42 23.45 C 26.44 22.75 26.47 21.34 26.49 20.63 Z" />
<path fill="#fbf25a" d=" M 30.20 19.74 C 31.45 20.12 32.94 20.16 33.80 21.29 C 36.49 23.78 33.51 29.02 29.96 28.01 C 27.64 27.98 26.82 25.34 26.42 23.45 C 28.39 24.80 30.53 24.50 31.64 22.29 C 31.28 21.65 30.56 20.38 30.20 19.74 Z" />
<path fill="#8f939b" d=" M 27.68 28.79 L 29.11 29.88 C 28.08 31.56 30.45 34.73 31.22 31.73 C 31.10 31.24 30.88 30.25 30.77 29.76 C 31.45 29.59 32.82 29.26 33.50 29.09 C 33.48 30.81 33.47 32.54 33.47 34.26 C 32.56 35.40 31.58 36.69 29.90 36.32 C 27.40 34.67 27.76 31.39 27.68 28.79 Z" />
<path fill="#d0cfca" d=" M 29.11 29.88 C 29.52 29.85 30.35 29.79 30.77 29.76 C 30.88 30.25 31.10 31.24 31.22 31.73 C 30.45 34.73 28.08 31.56 29.11 29.88 Z" />
</svg>
