<?xml version="1.0" encoding="utf-8"?>
<!-- Generator: Adobe Illustrator 17.0.0, SVG Export Plug-In . SVG Version: 6.00 Build 0)  -->
<!DOCTYPE svg PUBLIC "-//W3C//DTD SVG 1.1//EN" "http://www.w3.org/Graphics/SVG/1.1/DTD/svg11.dtd">
<svg version="1.1" id="Layer_1" xmlns="http://www.w3.org/2000/svg" xmlns:xlink="http://www.w3.org/1999/xlink" x="0px" y="0px"
	 width="16px" height="16px" viewBox="0 0 16 16" enable-background="new 0 0 16 16" xml:space="preserve">
<g>
	<g>
		<polygon fill="#3A4049" points="2.196,15.656 2.196,1.958 9.125,1.958 12.381,5.213 12.381,15.656 		"/>
	</g>
	
		<linearGradient id="SVGID_1_" gradientUnits="userSpaceOnUse" x1="305.2882" y1="-385.4103" x2="305.2882" y2="-372.2341" gradientTransform="matrix(1 0 0 -1 -298 -370)">
		<stop  offset="0" style="stop-color:#FFFFFF"/>
		<stop  offset="1" style="stop-color:#CFD3DB"/>
	</linearGradient>
	<polygon fill="url(#SVGID_1_)" points="9.276,2.456 2.442,2.456 2.442,15.41 12.135,15.41 12.135,5.315 	"/>
	
		<linearGradient id="SVGID_2_" gradientUnits="userSpaceOnUse" x1="303.8586" y1="-387.1718" x2="303.8586" y2="-372.2039" gradientTransform="matrix(1 0 0 -1 -298 -370)">
		<stop  offset="0" style="stop-color:#FFFFFF"/>
		<stop  offset="1" style="stop-color:#FFFFFF"/>
	</linearGradient>
	<polygon fill="url(#SVGID_2_)" points="9.023,2.204 2.442,2.204 2.442,2.456 9.276,2.456 	"/>
	
		<linearGradient id="SVGID_3_" gradientUnits="userSpaceOnUse" x1="-92.1434" y1="378.2734" x2="-89.4824" y2="378.2734" gradientTransform="matrix(-1 0 0 1 -80.207 -374.5771)">
		<stop  offset="0" style="stop-color:#FFFFFF"/>
		<stop  offset="1" style="stop-color:#FFFFFF"/>
	</linearGradient>
	<polygon fill="url(#SVGID_3_)" points="11.936,5.027 9.275,2.366 9.275,5.027 	"/>
	<polygon fill="#3A4049" points="9.275,5.027 9.275,2.366 9.078,2.168 9.078,5.279 12.189,5.279 11.936,5.027 	"/>
</g>
<g>
	<g>
		<polygon fill="#3A4049" points="4.183,13.978 4.183,0.279 11.113,0.279 14.368,3.535 14.368,13.978 		"/>
	</g>
	
		<linearGradient id="SVGID_4_" gradientUnits="userSpaceOnUse" x1="307.2756" y1="-383.7319" x2="307.2756" y2="-370.5557" gradientTransform="matrix(1 0 0 -1 -298 -370)">
		<stop  offset="0" style="stop-color:#FFFFFF"/>
		<stop  offset="1" style="stop-color:#CFD3DB"/>
	</linearGradient>
	<polygon fill="url(#SVGID_4_)" points="11.263,0.778 4.429,0.778 4.429,13.732 14.122,13.732 14.122,3.637 	"/>
	
		<linearGradient id="SVGID_5_" gradientUnits="userSpaceOnUse" x1="305.846" y1="-385.4935" x2="305.846" y2="-370.5255" gradientTransform="matrix(1 0 0 -1 -298 -370)">
		<stop  offset="0" style="stop-color:#FFFFFF"/>
		<stop  offset="1" style="stop-color:#FFFFFF"/>
	</linearGradient>
	<polygon fill="url(#SVGID_5_)" points="11.011,0.525 4.429,0.525 4.429,0.778 11.263,0.778 	"/>
	
		<linearGradient id="SVGID_6_" gradientUnits="userSpaceOnUse" x1="-94.1308" y1="376.595" x2="-91.4698" y2="376.595" gradientTransform="matrix(-1 0 0 1 -80.207 -374.5771)">
		<stop  offset="0" style="stop-color:#FFFFFF"/>
		<stop  offset="1" style="stop-color:#FFFFFF"/>
	</linearGradient>
	<polygon fill="url(#SVGID_6_)" points="13.924,3.348 11.263,0.687 11.263,3.348 	"/>
	<polygon fill="#3A4049" points="11.263,3.348 11.263,0.687 11.065,0.489 11.065,3.601 14.176,3.601 13.924,3.348 	"/>
</g>
<g>
	<polygon fill="#640D0D" points="7.099,15.581 7.099,12.484 2.037,12.484 2.037,9.152 7.099,9.152 7.098,6.054 11.862,10.818 	"/>
</g>
<polygon fill="#CB2027" points="7.475,9.528 2.413,9.528 2.413,12.107 7.475,12.107 7.475,14.672 11.329,10.818 7.475,6.963 "/>
<polygon fill="#EF3C24" points="7.475,9.528 2.413,9.528 2.413,12.107 2.746,12.107 2.747,9.861 7.808,9.861 7.808,7.296 
	7.475,6.963 "/>
</svg>
