<svg id="letter_form" data-name="letter form" xmlns="http://www.w3.org/2000/svg" xmlns:xlink="http://www.w3.org/1999/xlink" viewBox="0 0 283.24 74.27"><defs><style>.cls-1{fill:none;}.cls-2{clip-path:url(#clip-path);}.cls-3{clip-path:url(#clip-path-2);}.cls-4{fill:#e82;}.cls-5{clip-path:url(#clip-path-3);}.cls-6{fill:url(#linear-gradient);}.cls-7{clip-path:url(#clip-path-4);}.cls-8{fill:url(#linear-gradient-2);}.cls-9{clip-path:url(#clip-path-5);}.cls-10{fill:url(#radial-gradient);}.cls-11{clip-path:url(#clip-path-6);}.cls-12{fill:url(#radial-gradient-2);}.cls-13{fill:#fdbc5f;}.cls-14{clip-path:url(#clip-path-8);}.cls-15{fill:url(#radial-gradient-3);}</style><clipPath id="clip-path"><rect class="cls-1" x="-6.5" y="15.79" width="37.04" height="46.16"/></clipPath><clipPath id="clip-path-2"><rect class="cls-1" x="-17.21" y="9.66" width="60.99" height="60.99"/></clipPath><clipPath id="clip-path-3"><path class="cls-1" d="M0.79,18.77C0.67,23.88,1,51.29,1.91,60.69c1.32,0.8,12.29,1.25,12.34,1.2-17.52-27.22-9-40.31-4.58-46.11-0.18,0-7,1.85-8.87,3"/></clipPath><linearGradient id="linear-gradient" x1="-103.47" y1="-781.48" x2="-103.41" y2="-781.48" gradientTransform="matrix(856.24, 0, 0, -856.24, 88579.51, -669099.41)" gradientUnits="userSpaceOnUse"><stop offset="0" stop-color="#a75726"/><stop offset="0" stop-color="#a75726"/><stop offset="0.28" stop-color="#c5702b"/><stop offset="0.52" stop-color="#d7802f"/><stop offset="0.69" stop-color="#de8530"/><stop offset="0.76" stop-color="#da832f"/><stop offset="0.84" stop-color="#ce7c2e"/><stop offset="0.91" stop-color="#b9702b"/><stop offset="0.99" stop-color="#9d5f26"/><stop offset="1" stop-color="#9a5e26"/><stop offset="1" stop-color="#9a5e26"/></linearGradient><clipPath id="clip-path-4"><path class="cls-1" d="M14.24,61.9C11.52,56.08,1,35.85,8.93,27.78c7-7.08,21.62-2.39,21.62-2.39s-1-4.54-1.45-6.29A1.41,1.41,0,0,0,28,18C20.59,16.22,9.87,15.8,9.67,15.79,9.75,15.86-6.5,29.69,14.24,61.9M9.67,15.79h0"/></clipPath><linearGradient id="linear-gradient-2" x1="-103.42" y1="-782.65" x2="-103.36" y2="-782.65" gradientTransform="matrix(723.65, 0, 0, -723.65, 74838.89, -566329.93)" xlink:href="#linear-gradient"/><clipPath id="clip-path-5"><path class="cls-1" d="M8.13,30.41h-1c-4.68,9.95,7,31.38,7.08,31.5a78.77,78.77,0,0,1-.13-10.34c0.36-3.28.48-6,4.72-7.08a70.7,70.7,0,0,1,10.68-1.42c-0.26-.19-2-1.12-11.8-1-6,.08-5.62-6-1.29-6.18,3.79-.16,10.47.4,10.47,0.4s-5.78-.93-9.66-1.86c-1.85-.44-3.58-1.43-3.4-4H8.13Z"/></clipPath><radialGradient id="radial-gradient" cx="-103.82" cy="-785.8" r="0.06" gradientTransform="matrix(356.88, 0, 0, -273.92, 37071.95, -215197.05)" gradientUnits="userSpaceOnUse"><stop offset="0" stop-color="#ab8052"/><stop offset="0.34" stop-color="#ab8052"/><stop offset="0.37" stop-color="#b18453"/><stop offset="0.65" stop-color="#daa259"/><stop offset="0.87" stop-color="#f4b55e"/><stop offset="1" stop-color="#fdbc5f"/></radialGradient><clipPath id="clip-path-6"><path class="cls-1" d="M9,27.68a10.1,10.1,0,0,0-1.91,2.74l0.39,0.45,5.94,0.05,0.4-.52c0.06-1.89,2.32-4.95,9.47-4.5s7.23-.51,7.23-0.51a36.73,36.73,0,0,0-10.28-1.61c-4,0-8.31.87-11.24,3.9"/></clipPath><radialGradient id="radial-gradient-2" cx="-103.17" cy="-790.85" r="0.06" gradientTransform="matrix(0, 396.52, 174.15, 0, 137751.35, 40940.32)" xlink:href="#radial-gradient"/><clipPath id="clip-path-8"><path class="cls-1" d="M29.52,43.06h0M16.41,35.88c-4.33.18-4.67,6.26,1.29,6.18,9.76-.13,11.56.8,11.83,1l-2.62-6.77s-5.15-.44-9-0.44c-0.54,0-1.05,0-1.52,0"/></clipPath><radialGradient id="radial-gradient-3" cx="-104.48" cy="-787.56" r="0.06" gradientTransform="matrix(282.15, 0, 0, -222.74, 29505.25, -175388.66)" gradientUnits="userSpaceOnUse"><stop offset="0" stop-color="#de8530"/><stop offset="0.23" stop-color="#da832f"/><stop offset="0.45" stop-color="#ce7c2d"/><stop offset="0.68" stop-color="#ba702a"/><stop offset="0.9" stop-color="#9e6026"/><stop offset="1" stop-color="#8f5723"/></radialGradient></defs><title>Fusion_Lifecycle_2017_stacked</title><g class="cls-2"><g class="cls-3"><path class="cls-4" d="M12.33,61.64c-4.74,0-8.86-.47-10.13-1.15C1.35,51.12,1,24.52,1.1,19,3,17.91,9.27,16.19,9.74,16.12H9.83A114.78,114.78,0,0,1,28,18.29a1.22,1.22,0,0,1,.92,1c0.43,1.59,1.29,5.55,1.42,6.16-0.13.11-.77,0.47-3.68,0.47-0.95,0-2.06,0-3.3-.12-0.47,0-.94,0-1.38,0a10.92,10.92,0,0,0-6.39,1.64,4.17,4.17,0,0,0-1.87,3.07c-0.15,2.23,1,3.6,3.53,4.21,3.5,0.84,8.59,1.65,9.49,1.79l2.5,6.43a68.17,68.17,0,0,0-10.41,1.39C14.63,45.36,14.34,48,14,51.12l0,0.38a78.54,78.54,0,0,0,.11,10.12l-1.75,0"/></g><g class="cls-5"><rect class="cls-6" x="-19.2" y="22.55" width="49.37" height="32.64" transform="translate(-32.83 30.32) rotate(-69.4)"/></g><g class="cls-7"><rect class="cls-8" x="-15.4" y="9.68" width="54.85" height="58.33" transform="translate(-17.44 10.82) rotate(-29.24)"/></g><g class="cls-9"><rect class="cls-10" x="2.48" y="30.41" width="27.04" height="31.5"/></g><g class="cls-11"><rect class="cls-12" x="13.7" y="15.26" width="10.27" height="24.19" transform="translate(-10.83 42.28) rotate(-82.16)"/></g><g class="cls-3"><path class="cls-13" d="M14.24,61.9l-0.31-.47c-0.2-.31-0.49-0.75-0.85-1.33s-0.8-1.28-1.28-2.1-1-1.75-1.57-2.78-1.14-2.15-1.72-3.36c-0.29-.6-0.58-1.23-0.86-1.87L7.23,49C7.09,48.67,7,48.34,6.82,48c-0.54-1.36-1-2.78-1.49-4.26C5.1,43,4.9,42.26,4.71,41.5S4.35,40,4.2,39.22a37.55,37.55,0,0,1-.59-4.62c0-.77-0.07-1.53-0.07-2.28s0-1.5.1-2.23a26.65,26.65,0,0,1,.66-4.17,24.75,24.75,0,0,1,1.16-3.6A22,22,0,0,1,6.9,19.46a21.14,21.14,0,0,1,1.37-2c0.41-.54.77-0.95,1-1.22l0.28-.31,0.1-.1-0.1.11-0.28.31c-0.24.28-.58,0.69-1,1.24A21.05,21.05,0,0,0,7,19.5,23.47,23.47,0,0,0,5.6,22.37,24.61,24.61,0,0,0,4.48,26a28.23,28.23,0,0,0-.63,4.14c-0.06.73-.09,1.47-0.09,2.21s0,1.51.07,2.27a37.48,37.48,0,0,0,.6,4.59q0.22,1.14.5,2.27c0.19,0.75.39,1.5,0.61,2.23C6,45.14,6.48,46.56,7,47.92s1.1,2.65,1.66,3.86,1.13,2.34,1.68,3.37,1.06,2,1.53,2.79,0.89,1.54,1.24,2.12l0.83,1.35,0.3,0.48"/></g><g class="cls-14"><rect class="cls-15" x="11.74" y="35.86" width="17.78" height="7.21"/></g><g class="cls-3"><path class="cls-13" d="M30.55,25.39s-0.66-.21-1.83-0.48a41.15,41.15,0,0,0-4.9-.84c-1-.11-2.14-0.19-3.32-0.2a24.5,24.5,0,0,0-3.69.23,16.4,16.4,0,0,0-3.81,1,11,11,0,0,0-3.43,2.14,9.71,9.71,0,0,0-1.34,1.53,10.42,10.42,0,0,0-1,1.76A11.54,11.54,0,0,0,6.6,32.4a14.61,14.61,0,0,0-.34,1.91,19.91,19.91,0,0,0,0,3.69c0,0.59.11,1.16,0.18,1.7s0.16,1.08.25,1.58c0.18,1,.39,1.93.58,2.75s0.38,1.52.54,2.1,0.29,1,.38,1.34L8.29,48l-0.15-.47c-0.1-.31-0.24-0.76-0.42-1.33s-0.38-1.28-.6-2.09-0.43-1.73-.63-2.75A29.18,29.18,0,0,1,6,38a20.12,20.12,0,0,1,0-3.73,13.78,13.78,0,0,1,.34-1.95A11.77,11.77,0,0,1,7,30.43a10.66,10.66,0,0,1,1-1.79,9.92,9.92,0,0,1,1.37-1.56,11.21,11.21,0,0,1,3.5-2.17,16.47,16.47,0,0,1,3.87-1,24.66,24.66,0,0,1,3.72-.2,32.31,32.31,0,0,1,3.33.24c1,0.13,2,.28,2.78.44s1.54,0.32,2.12.47c1.17,0.29,1.82.51,1.82,0.51"/><path class="cls-13" d="M26.91,36.29l-2.4-.12-1.16-.06L22,36.06l-0.69,0-0.7,0-0.71,0H17.79l-1.38,0-0.33,0H15.92l-0.16,0a3.61,3.61,0,0,0-.6.17,3.15,3.15,0,0,0-1,.58A1.93,1.93,0,0,0,14,37l-0.09.09,0,0,0,0-0.14.19-0.12.19-0.05.09,0,0.09,0,0.09,0,0.09-0.06.17,0,0.16a2.16,2.16,0,0,0-.06.27l0,0.11v0s0-.07,0-0.11l0-.13a1.33,1.33,0,0,1,0-.15l0-.16,0.06-.17,0-.09,0-.09,0-.1,0-.1a2.81,2.81,0,0,1,.61-0.79,3.27,3.27,0,0,1,1-.63,3.74,3.74,0,0,1,.62-0.19l0.33-.06,0.33,0,0.69,0,0.7,0H20l0.71,0,0.7,0,0.69,0L23.35,36l1.16,0.09,1,0.09,0.76,0.07,0.49,0.05,0.17,0"/></g></g><path d="M57.47,28.67H50.23l-1.8,5.72h-2l6.07-18.55h2.73l6.26,18.55H59.37ZM50.76,27h6.18l-3.13-9.73Z"/><path d="M78.13,15.84V34.39H76.36l-0.13-2.31a7.2,7.2,0,0,1-5.7,2.62c-4.06,0-5.8-2.81-5.8-6.28V15.84h2V28.51c0,2.54,1.09,4.58,4.21,4.58a5.92,5.92,0,0,0,5.22-3V15.84h2Z"/><path d="M95.35,17.48H89.81V34.39h-2V17.48H82.31V15.84h13v1.64Z"/><path d="M112.55,23.13v4.08c0,4.16-2.23,7.5-7.21,7.5s-7.21-3.34-7.21-7.5V23.13c0-4.37,2.25-7.61,7.21-7.61S112.55,18.83,112.55,23.13Zm-12.43,0v4.16c0,3.26,1.54,5.83,5.22,5.83s5.22-2.57,5.22-5.83V23.1c0-3.42-1.54-6-5.22-6S100.12,19.63,100.12,23.1Z"/><path d="M130.5,23.26v3.23c0,4.85-2.86,7.9-8.16,7.9h-4.61V15.84H123C128,15.84,130.5,18.81,130.5,23.26Zm-2-.05c0-3.55-1.88-5.75-5.62-5.75h-3.18V32.77h2.62c4.06,0,6.18-2.17,6.18-6.23V23.21Z"/><path d="M137.58,17.45V24h7.47v1.64h-7.47v7.1h8.06v1.62h-10V15.84h10v1.62h-8.06Z"/><path d="M149.22,29.28h1.91c0.13,2,1.35,3.79,4.93,3.79s4.48-1.78,4.48-3.15V29.3c0-1.88-1.11-2.57-3.9-3.47L154,25c-2.86-1-4-2.15-4-4.4V20c0-2,1.7-4.45,6.2-4.45,4.21,0,6.25,2.28,6.39,5.22h-1.91c-0.13-1.8-1.19-3.61-4.48-3.61S152,18.75,152,20V20.5c0,1.38.82,2.17,3.37,3L158,24.35c3,1,4.53,2.2,4.53,4.82v0.66c0,2.49-1.83,4.88-6.47,4.88C151.69,34.71,149.43,32.51,149.22,29.28Z"/><path d="M181,33l0,1.38a2.47,2.47,0,0,1-1.09.21c-1.22,0-1.93-.42-2.84-1.72l-5-7.37-2.62,3.29v5.62h-1.91V15.84h1.91V26.07l8.14-10.23h2.17l-6.47,8.22,5.54,8a1.76,1.76,0,0,0,1.67,1A3.06,3.06,0,0,0,181,33Z"/><path d="M185.93,17.8v0.66a2,2,0,0,1-2.2,1.92,2,2,0,0,1-2.18-1.92V17.8a2.05,2.05,0,0,1,2.2-1.85A2,2,0,0,1,185.93,17.8Zm-0.32,0a1.68,1.68,0,0,0-1.87-1.57,1.74,1.74,0,0,0-1.87,1.57v0.67a1.69,1.69,0,0,0,1.87,1.63,1.66,1.66,0,0,0,1.87-1.63V17.8Zm-0.83,1.41h0.05v0.25a0.57,0.57,0,0,1-.2,0,0.41,0.41,0,0,1-.38-0.25l-0.43-.81h-0.46v1H183V16.88h0.74a0.75,0.75,0,0,1,.88.67v0.18a0.63,0.63,0,0,1-.48.63l0.39,0.73A0.22,0.22,0,0,0,184.79,19.21Zm-0.48-1.49V17.57a0.45,0.45,0,0,0-.55-0.4h-0.39v1h0.35A0.48,0.48,0,0,0,184.3,17.72Z"/><path d="M51.66,45.91v5.51h6.68V54H51.66v7.9H48.32V43.34H59.45v2.57H51.66Z"/><path d="M76.93,43.34V61.89H74l-0.21-1.72a6.8,6.8,0,0,1-5,2.07c-4,0-6.07-2.73-6.07-6.33V43.34H66V56c0,2.12.93,3.63,3.45,3.63a5,5,0,0,0,4.11-2.09V43.34h3.34Z"/><path d="M80.79,56.43H84c0.11,1.7.93,3.21,4.13,3.21,2.84,0,3.55-1.33,3.55-2.39V56.67c0-1.56-.85-2.07-3.53-2.92l-2.68-.85c-2.84-.87-4-2.2-4-4.53V47.76c0-2.25,1.88-4.77,6.68-4.77,4.19,0,6.71,2,6.84,5.46H91.81c-0.13-1.59-1.06-3-3.68-3s-3.31,1.19-3.31,2.23v0.45c0,1,.66,1.7,3,2.39l2.68,0.82c3,1,4.56,2.39,4.56,5v0.69c0,2.81-2.31,5.17-6.92,5.17S81,60,80.79,56.43Z"/><path d="M99.12,43.34h3.34V61.89H99.12V43.34Z"/><path d="M122,50.55v4.16c0,4.32-2.52,7.53-7.63,7.53s-7.61-3.21-7.61-7.53V50.55c0-4.37,2.52-7.55,7.61-7.55S122,46.17,122,50.55Zm-11.9,0v4.24c0,2.92,1.35,4.9,4.27,4.9s4.27-2,4.27-4.9V50.52c0-3-1.38-5-4.27-5S110.12,47.53,110.12,50.52Z"/><path d="M140.45,43.34V61.89h-3.87L129.3,47.53V61.89h-2.94V43.34h4l7.13,13.91V43.34h3Z"/><path d="M164.22,59.19v2.7H153.36V43.34h3.34V59.19h7.53Z"/><path d="M167.59,43.34h3.34V61.89h-3.34V43.34Z"/><path d="M179.27,45.91v5.51h6.68V54h-6.68v7.9h-3.34V43.34h11.13v2.57h-7.79Z"/><path d="M193.9,45.91v5.27h6.92v2.57H193.9v5.54h7.5v2.6H190.56V43.34H201.4v2.57h-7.5Z"/><path d="M204.71,55.32V49.91c0-4.05,2.54-6.92,7.13-6.92,4.35,0,6.52,2.49,6.6,5.72h-3.15c-0.11-2-1.11-3.15-3.45-3.15s-3.74,1.67-3.74,4.13v5.83c0,2.46,1.3,4.11,3.68,4.11s3.45-1.19,3.55-3.18h3.18c-0.27,3.42-2.33,5.78-6.81,5.78S204.71,59.37,204.71,55.32Z"/><path d="M229.34,54.31v7.58H226V54.34l-5.94-11h3.5l4.21,8.4,4.13-8.4h3.37Z"/><path d="M236.93,55.32V49.91c0-4.05,2.54-6.92,7.13-6.92,4.35,0,6.52,2.49,6.6,5.72h-3.15c-0.11-2-1.11-3.15-3.45-3.15s-3.74,1.67-3.74,4.13v5.83c0,2.46,1.3,4.11,3.68,4.11s3.45-1.19,3.55-3.18h3.18c-0.27,3.42-2.33,5.78-6.81,5.78S236.93,59.37,236.93,55.32Z"/><path d="M265.41,59.19v2.7H254.54V43.34h3.34V59.19h7.53Z"/><path d="M272.11,45.91v5.27H279v2.57h-6.92v5.54h7.5v2.6H268.77V43.34h10.84v2.57h-7.5Z"/></svg>