<svg id="letter_form" data-name="letter form" xmlns="http://www.w3.org/2000/svg" xmlns:xlink="http://www.w3.org/1999/xlink" viewBox="0 0 292.03 77.69"><defs><style>.cls-1{fill:none;}.cls-2{clip-path:url(#clip-path);}.cls-3{clip-path:url(#clip-path-2);}.cls-4{fill:#e82;}.cls-5{clip-path:url(#clip-path-3);}.cls-6{fill:url(#linear-gradient);}.cls-7{clip-path:url(#clip-path-4);}.cls-8{fill:url(#linear-gradient-2);}.cls-9{clip-path:url(#clip-path-5);}.cls-10{fill:url(#radial-gradient);}.cls-11{clip-path:url(#clip-path-6);}.cls-12{fill:url(#radial-gradient-2);}.cls-13{fill:#fdbc5f;}.cls-14{clip-path:url(#clip-path-8);}.cls-15{fill:url(#radial-gradient-3);}.cls-16{fill:#fff;}</style><clipPath id="clip-path"><rect class="cls-1" x="-5.67" y="15.79" width="37.04" height="46.16"/></clipPath><clipPath id="clip-path-2"><rect class="cls-1" x="-16.38" y="9.66" width="60.99" height="60.99"/></clipPath><clipPath id="clip-path-3"><path class="cls-1" d="M1.62,18.77c-0.12,5.11.25,32.52,1.11,41.92C4.06,61.5,15,61.95,15.07,61.9c-17.52-27.22-9-40.31-4.58-46.11-0.18,0-7,1.85-8.87,3"/></clipPath><linearGradient id="linear-gradient" x1="-1003.24" y1="-782.47" x2="-1003.18" y2="-782.47" gradientTransform="matrix(856.24, 0, 0, -856.24, 858996.1, -669942.77)" gradientUnits="userSpaceOnUse"><stop offset="0" stop-color="#a75726"/><stop offset="0" stop-color="#a75726"/><stop offset="0.28" stop-color="#c5702b"/><stop offset="0.52" stop-color="#d7802f"/><stop offset="0.69" stop-color="#de8530"/><stop offset="0.76" stop-color="#da832f"/><stop offset="0.84" stop-color="#ce7c2e"/><stop offset="0.91" stop-color="#b9702b"/><stop offset="0.99" stop-color="#9d5f26"/><stop offset="1" stop-color="#9a5e26"/><stop offset="1" stop-color="#9a5e26"/></linearGradient><clipPath id="clip-path-4"><path class="cls-1" d="M15.07,61.9c-2.72-5.81-13.26-26-5.31-34.11,7-7.08,21.62-2.39,21.62-2.39s-1-4.54-1.45-6.29A1.41,1.41,0,0,0,28.86,18c-7.44-1.76-18.16-2.18-18.37-2.19,0.09,0.08-16.16,13.9,4.58,46.11M10.49,15.79h0"/></clipPath><linearGradient id="linear-gradient-2" x1="-1002.47" y1="-783.26" x2="-1002.41" y2="-783.26" gradientTransform="matrix(723.65, 0, 0, -723.65, 725438.67, -566769.98)" xlink:href="#linear-gradient"/><clipPath id="clip-path-5"><path class="cls-1" d="M9,30.41H8c-4.68,9.95,7,31.38,7.08,31.5a78.77,78.77,0,0,1-.13-10.34c0.36-3.28.48-6,4.72-7.08a70.7,70.7,0,0,1,10.68-1.42c-0.26-.19-2-1.12-11.8-1-6,.08-5.62-6-1.29-6.18,3.79-.16,10.47.4,10.47,0.4s-5.78-.93-9.66-1.86c-1.85-.44-3.58-1.43-3.4-4H9Z"/></clipPath><radialGradient id="radial-gradient" cx="-1001.43" cy="-785.8" r="0.06" gradientTransform="matrix(356.88, 0, 0, -273.92, 357414.2, -215197.05)" gradientUnits="userSpaceOnUse"><stop offset="0" stop-color="#ab8052"/><stop offset="0.34" stop-color="#ab8052"/><stop offset="0.37" stop-color="#b18453"/><stop offset="0.65" stop-color="#daa259"/><stop offset="0.87" stop-color="#f4b55e"/><stop offset="1" stop-color="#fdbc5f"/></radialGradient><clipPath id="clip-path-6"><path class="cls-1" d="M9.85,27.68a10.1,10.1,0,0,0-1.91,2.74l0.39,0.45,5.94,0.05,0.4-.52c0.06-1.89,2.32-4.95,9.47-4.5s7.23-.51,7.23-0.51A36.73,36.73,0,0,0,21.1,23.78c-4,0-8.31.87-11.24,3.9"/></clipPath><radialGradient id="radial-gradient-2" cx="-1001.06" cy="-790.14" r="0.06" gradientTransform="matrix(0, 396.52, 174.15, 0, 137629.29, 396969.27)" xlink:href="#radial-gradient"/><clipPath id="clip-path-8"><path class="cls-1" d="M30.35,43.06h0M17.24,35.88c-4.33.18-4.67,6.26,1.29,6.18,9.76-.13,11.56.8,11.83,1l-2.62-6.77s-5.15-.44-9-0.44c-0.54,0-1.05,0-1.52,0"/></clipPath><radialGradient id="radial-gradient-3" cx="-1001.42" cy="-787.56" r="0.06" gradientTransform="matrix(282.15, 0, 0, -222.74, 282578.33, -175388.66)" gradientUnits="userSpaceOnUse"><stop offset="0" stop-color="#de8530"/><stop offset="0.23" stop-color="#da832f"/><stop offset="0.45" stop-color="#ce7c2d"/><stop offset="0.68" stop-color="#ba702a"/><stop offset="0.9" stop-color="#9e6026"/><stop offset="1" stop-color="#8f5723"/></radialGradient></defs><title>Fusion_1line_white</title><g class="cls-2"><g class="cls-3"><path class="cls-4" d="M13.16,61.64c-4.74,0-8.86-.47-10.13-1.15-0.85-9.37-1.22-36-1.1-41.49,1.93-1.09,8.17-2.81,8.64-2.89h0.09a114.78,114.78,0,0,1,18.14,2.17,1.22,1.22,0,0,1,.92,1c0.43,1.59,1.29,5.55,1.42,6.16-0.13.11-.77,0.47-3.68,0.47-0.95,0-2.06,0-3.3-.12-0.47,0-.94,0-1.38,0a10.92,10.92,0,0,0-6.39,1.64,4.17,4.17,0,0,0-1.87,3.07c-0.15,2.23,1,3.6,3.53,4.21,3.5,0.84,8.59,1.65,9.49,1.79l2.5,6.43a68.17,68.17,0,0,0-10.41,1.39c-4.19,1.08-4.47,3.75-4.81,6.84l0,0.38a78.54,78.54,0,0,0,.11,10.12l-1.75,0"/></g><g class="cls-5"><rect class="cls-6" x="-18.37" y="22.55" width="49.37" height="32.64" transform="translate(-32.29 31.1) rotate(-69.4)"/></g><g class="cls-7"><rect class="cls-8" x="-14.57" y="9.68" width="54.85" height="58.33" transform="translate(-17.33 11.23) rotate(-29.24)"/></g><g class="cls-9"><rect class="cls-10" x="3.31" y="30.41" width="27.04" height="31.5"/></g><g class="cls-11"><rect class="cls-12" x="14.53" y="15.26" width="10.27" height="24.19" transform="matrix(0.14, -0.99, 0.99, 0.14, -10.12, 43.1)"/></g><g class="cls-3"><path class="cls-13" d="M15.07,61.9l-0.31-.47c-0.2-.31-0.49-0.75-0.85-1.33s-0.8-1.28-1.28-2.1-1-1.75-1.57-2.78-1.14-2.15-1.72-3.36c-0.29-.6-0.58-1.23-0.86-1.87L8.06,49c-0.14-.33-0.28-0.67-0.41-1-0.54-1.36-1-2.78-1.49-4.26C5.93,43,5.73,42.26,5.53,41.5S5.18,40,5,39.22a37.55,37.55,0,0,1-.59-4.62c0-.77-0.07-1.53-0.07-2.28s0-1.5.1-2.23a26.65,26.65,0,0,1,.66-4.17,24.75,24.75,0,0,1,1.16-3.6,22,22,0,0,1,1.42-2.86,21.14,21.14,0,0,1,1.37-2c0.41-.54.77-0.95,1-1.22l0.28-.31,0.1-.1-0.1.11-0.28.31c-0.24.28-.58,0.69-1,1.24A21.05,21.05,0,0,0,7.8,19.5a23.47,23.47,0,0,0-1.38,2.87A24.61,24.61,0,0,0,5.31,26a28.23,28.23,0,0,0-.63,4.14c-0.06.73-.09,1.47-0.09,2.21s0,1.51.07,2.27a37.48,37.48,0,0,0,.6,4.59q0.22,1.14.5,2.27c0.19,0.75.39,1.5,0.61,2.23,0.44,1.47.94,2.89,1.47,4.24s1.1,2.65,1.66,3.86,1.13,2.34,1.68,3.37,1.06,2,1.53,2.79S13.6,59.49,14,60.07l0.83,1.35,0.3,0.48"/></g><g class="cls-14"><rect class="cls-15" x="12.57" y="35.86" width="17.78" height="7.21"/></g><g class="cls-3"><path class="cls-13" d="M31.38,25.39s-0.66-.21-1.83-0.48a41.15,41.15,0,0,0-4.9-.84c-1-.11-2.14-0.19-3.32-0.2a24.5,24.5,0,0,0-3.69.23,16.4,16.4,0,0,0-3.81,1,11,11,0,0,0-3.43,2.14,9.71,9.71,0,0,0-1.34,1.53,10.42,10.42,0,0,0-1,1.76,11.54,11.54,0,0,0-.64,1.88,14.61,14.61,0,0,0-.34,1.91A19.91,19.91,0,0,0,7,38c0,0.59.11,1.16,0.18,1.7s0.16,1.08.25,1.58c0.18,1,.39,1.93.58,2.75s0.38,1.52.54,2.1,0.29,1,.38,1.34L9.11,48,9,47.49c-0.1-.31-0.24-0.76-0.42-1.33s-0.38-1.28-.6-2.09-0.43-1.73-.63-2.75A29.18,29.18,0,0,1,6.84,38a20.12,20.12,0,0,1,0-3.73,13.78,13.78,0,0,1,.34-1.95,11.77,11.77,0,0,1,.66-1.92,10.66,10.66,0,0,1,1-1.79,9.92,9.92,0,0,1,1.37-1.56,11.21,11.21,0,0,1,3.5-2.17,16.47,16.47,0,0,1,3.87-1,24.66,24.66,0,0,1,3.72-.2,32.31,32.31,0,0,1,3.33.24c1,0.13,2,.28,2.78.44s1.54,0.32,2.12.47c1.17,0.29,1.82.51,1.82,0.51"/><path class="cls-13" d="M27.74,36.29l-2.4-.12-1.16-.06-1.3-.05-0.69,0-0.7,0-0.71,0H18.62l-1.38,0-0.33,0H16.75l-0.16,0a3.61,3.61,0,0,0-.6.17,3.15,3.15,0,0,0-1,.58,1.93,1.93,0,0,0-.19.18l-0.09.09,0,0,0,0-0.14.19-0.12.19-0.05.09,0,0.09,0,0.09,0,0.09-0.06.17,0,0.16a2.16,2.16,0,0,0-.06.27l0,0.11v0s0-.07,0-0.11l0-.13a1.33,1.33,0,0,1,0-.15l0-.16,0.06-.17,0-.09,0-.09,0-.1,0-.1a2.81,2.81,0,0,1,.61-0.79,3.27,3.27,0,0,1,1-.63,3.74,3.74,0,0,1,.62-0.19l0.33-.06,0.33,0,0.69,0,0.7,0h2.16l0.71,0,0.7,0,0.69,0L24.18,36l1.16,0.09,1,0.09,0.76,0.07,0.49,0.05,0.17,0"/></g></g><path class="cls-16" d="M58.29,42.4H51.06l-1.8,5.72h-2l6.07-18.55H56l6.25,18.55H60.2Zm-6.71-1.64h6.18L54.63,31Z"/><path class="cls-16" d="M79,29.57V48.13H77.18l-0.13-2.31a7.2,7.2,0,0,1-5.7,2.62c-4.05,0-5.8-2.81-5.8-6.28V29.57h2V42.24c0,2.54,1.09,4.58,4.21,4.58a5.92,5.92,0,0,0,5.22-3V29.57h2Z"/><path class="cls-16" d="M96.18,31.22H90.64V48.13h-2V31.22H83.14V29.57h13v1.64Z"/><path class="cls-16" d="M113.38,36.86v4.08c0,4.16-2.23,7.5-7.21,7.5S99,45.11,99,40.94V36.86c0-4.37,2.25-7.61,7.21-7.61S113.38,32.57,113.38,36.86Zm-12.43,0V41c0,3.26,1.54,5.83,5.22,5.83s5.22-2.57,5.22-5.83V36.84c0-3.42-1.54-6-5.22-6S101,33.36,101,36.84Z"/><path class="cls-16" d="M131.33,37v3.23c0,4.85-2.86,7.9-8.16,7.9h-4.61V29.57h5.27C128.81,29.57,131.33,32.54,131.33,37Zm-2-.05c0-3.55-1.88-5.75-5.62-5.75h-3.18V46.51h2.62c4.05,0,6.18-2.17,6.18-6.23V36.94Z"/><path class="cls-16" d="M138.41,31.19v6.57h7.47v1.64h-7.47v7.1h8.06v1.62h-10V29.57h10v1.62h-8.06Z"/><path class="cls-16" d="M150,43H152c0.13,2,1.35,3.79,4.93,3.79s4.48-1.78,4.48-3.15V43c0-1.88-1.11-2.57-3.9-3.47l-2.68-.87c-2.86-1-4-2.15-4-4.4V33.71c0-2,1.7-4.45,6.2-4.45,4.21,0,6.25,2.28,6.39,5.22h-1.91c-0.13-1.8-1.19-3.61-4.48-3.61s-4.19,1.62-4.19,2.84v0.53c0,1.38.82,2.17,3.37,3l2.68,0.85c3,1,4.53,2.2,4.53,4.82v0.66c0,2.49-1.83,4.88-6.47,4.88C152.51,48.45,150.26,46.24,150,43Z"/><path class="cls-16" d="M181.83,46.72l0,1.38a2.46,2.46,0,0,1-1.09.21c-1.22,0-1.94-.42-2.84-1.72l-5-7.37-2.62,3.29v5.62h-1.91V29.57h1.91V39.8l8.14-10.23h2.17l-6.47,8.22,5.54,8a1.76,1.76,0,0,0,1.67,1A3.07,3.07,0,0,0,181.83,46.72Z"/><path class="cls-16" d="M186.76,31.54V32.2a2,2,0,0,1-2.2,1.92,2,2,0,0,1-2.18-1.92V31.54a2.05,2.05,0,0,1,2.2-1.85A2,2,0,0,1,186.76,31.54Zm-0.32,0A1.68,1.68,0,0,0,184.57,30a1.74,1.74,0,0,0-1.87,1.57v0.67a1.69,1.69,0,0,0,1.87,1.63,1.66,1.66,0,0,0,1.87-1.63V31.53Zm-0.83,1.41h0.05v0.25a0.56,0.56,0,0,1-.2,0,0.41,0.41,0,0,1-.38-0.25l-0.43-.81h-0.46v1h-0.34V30.62h0.74a0.75,0.75,0,0,1,.88.67v0.18a0.63,0.63,0,0,1-.48.62l0.39,0.73A0.22,0.22,0,0,0,185.61,32.95Zm-0.48-1.49V31.3a0.45,0.45,0,0,0-.55-0.4h-0.39v1h0.35A0.48,0.48,0,0,0,185.13,31.46Z"/><path class="cls-16" d="M200.67,32.14v5.51h6.68v2.57h-6.68v7.9h-3.34V29.57h11.13v2.57h-7.79Z"/><path class="cls-16" d="M225.94,29.57V48.13H223l-0.21-1.72a6.8,6.8,0,0,1-5,2.07c-4,0-6.07-2.73-6.07-6.33V29.57H215v12.7c0,2.12.93,3.63,3.45,3.63a5,5,0,0,0,4.11-2.09V29.57h3.34Z"/><path class="cls-16" d="M229.79,42.67H233c0.11,1.7.93,3.21,4.13,3.21,2.84,0,3.55-1.33,3.55-2.39V42.91c0-1.56-.85-2.07-3.53-2.92l-2.68-.85c-2.84-.87-4-2.2-4-4.53V34c0-2.25,1.88-4.77,6.68-4.77,4.19,0,6.71,2,6.84,5.46h-3.13c-0.13-1.59-1.06-3-3.68-3s-3.31,1.19-3.31,2.23V34.4c0,1,.66,1.7,3,2.39l2.68,0.82c3,1,4.56,2.39,4.56,5V43.3c0,2.81-2.3,5.17-6.92,5.17S230,46.27,229.79,42.67Z"/><path class="cls-16" d="M248.13,29.57h3.34V48.13h-3.34V29.57Z"/><path class="cls-16" d="M271,36.78v4.16c0,4.32-2.52,7.53-7.63,7.53s-7.61-3.21-7.61-7.53V36.78c0-4.37,2.52-7.55,7.61-7.55S271,32.41,271,36.78Zm-11.9,0V41c0,2.92,1.35,4.9,4.27,4.9s4.27-2,4.27-4.9V36.76c0-3-1.38-5-4.27-5S259.13,33.76,259.13,36.76Z"/><path class="cls-16" d="M289.46,29.57V48.13h-3.87L278.3,33.76V48.13h-2.94V29.57h4l7.13,13.91V29.57h3Z"/></svg>