<svg id="letter_form" data-name="letter form" xmlns="http://www.w3.org/2000/svg" xmlns:xlink="http://www.w3.org/1999/xlink" viewBox="0 0 314.47 77.07"><defs><style>.cls-1{fill:none;}.cls-2{clip-path:url(#clip-path);}.cls-3{clip-path:url(#clip-path-2);}.cls-4{fill:#e82;}.cls-5{clip-path:url(#clip-path-3);}.cls-6{fill:url(#linear-gradient);}.cls-7{clip-path:url(#clip-path-4);}.cls-8{fill:url(#linear-gradient-2);}.cls-9{clip-path:url(#clip-path-5);}.cls-10{fill:url(#radial-gradient);}.cls-11{clip-path:url(#clip-path-6);}.cls-12{fill:url(#radial-gradient-2);}.cls-13{fill:#fdbc5f;}.cls-14{clip-path:url(#clip-path-8);}.cls-15{fill:url(#radial-gradient-3);}.cls-16{fill:#fff;}</style><clipPath id="clip-path"><rect class="cls-1" x="-6.16" y="15.79" width="37.04" height="46.16"/></clipPath><clipPath id="clip-path-2"><rect class="cls-1" x="-16.87" y="9.66" width="60.99" height="60.99"/></clipPath><clipPath id="clip-path-3"><path class="cls-1" d="M1.13,18.77C1,23.88,1.38,51.29,2.24,60.69c1.32,0.8,12.29,1.25,12.34,1.2C-2.94,34.68,5.61,21.59,10,15.79c-0.18,0-7,1.85-8.87,3"/></clipPath><linearGradient id="linear-gradient" x1="-103.14" y1="-781.48" x2="-103.08" y2="-781.48" gradientTransform="matrix(856.24, 0, 0, -856.24, 88294.43, -669099.41)" gradientUnits="userSpaceOnUse"><stop offset="0" stop-color="#a75726"/><stop offset="0" stop-color="#a75726"/><stop offset="0.28" stop-color="#c5702b"/><stop offset="0.52" stop-color="#d7802f"/><stop offset="0.69" stop-color="#de8530"/><stop offset="0.76" stop-color="#da832f"/><stop offset="0.84" stop-color="#ce7c2e"/><stop offset="0.91" stop-color="#b9702b"/><stop offset="0.99" stop-color="#9d5f26"/><stop offset="1" stop-color="#9a5e26"/><stop offset="1" stop-color="#9a5e26"/></linearGradient><clipPath id="clip-path-4"><path class="cls-1" d="M14.58,61.9c-2.72-5.81-13.26-26-5.31-34.11,7-7.08,21.62-2.39,21.62-2.39s-1-4.54-1.45-6.29A1.41,1.41,0,0,0,28.36,18C20.93,16.22,10.21,15.8,10,15.79c0.09,0.08-16.16,13.9,4.58,46.11M10,15.79h0"/></clipPath><linearGradient id="linear-gradient-2" x1="-103.09" y1="-782.65" x2="-103.03" y2="-782.65" gradientTransform="matrix(723.65, 0, 0, -723.65, 74598.01, -566329.93)" xlink:href="#linear-gradient"/><clipPath id="clip-path-5"><path class="cls-1" d="M8.47,30.41h-1c-4.68,9.95,7,31.38,7.08,31.5a78.77,78.77,0,0,1-.13-10.34c0.36-3.28.48-6,4.72-7.08a70.7,70.7,0,0,1,10.68-1.42c-0.26-.19-2-1.12-11.8-1-6,.08-5.62-6-1.29-6.18,3.79-.16,10.47.4,10.47,0.4s-5.78-.93-9.66-1.86c-1.85-.44-3.58-1.43-3.4-4H8.47Z"/></clipPath><radialGradient id="radial-gradient" cx="-103.48" cy="-785.8" r="0.06" gradientTransform="matrix(356.88, 0, 0, -273.92, 36953.32, -215197.05)" gradientUnits="userSpaceOnUse"><stop offset="0" stop-color="#ab8052"/><stop offset="0.34" stop-color="#ab8052"/><stop offset="0.37" stop-color="#b18453"/><stop offset="0.65" stop-color="#daa259"/><stop offset="0.87" stop-color="#f4b55e"/><stop offset="1" stop-color="#fdbc5f"/></radialGradient><clipPath id="clip-path-6"><path class="cls-1" d="M9.36,27.68a10.1,10.1,0,0,0-1.91,2.74l0.39,0.45,5.94,0.05,0.4-.52c0.06-1.89,2.32-4.95,9.47-4.5s7.23-.51,7.23-0.51A36.73,36.73,0,0,0,20.6,23.78c-4,0-8.31.87-11.24,3.9"/></clipPath><radialGradient id="radial-gradient-2" cx="-102.84" cy="-790.85" r="0.06" gradientTransform="matrix(0, 396.52, 174.15, 0, 137751.69, 40808.15)" xlink:href="#radial-gradient"/><clipPath id="clip-path-8"><path class="cls-1" d="M29.86,43.06h0M16.74,35.88c-4.33.18-4.67,6.26,1.29,6.18,9.76-.13,11.56.8,11.83,1l-2.62-6.77s-5.15-.44-9-0.44c-0.54,0-1.05,0-1.52,0"/></clipPath><radialGradient id="radial-gradient-3" cx="-104.15" cy="-787.56" r="0.06" gradientTransform="matrix(282.15, 0, 0, -222.74, 29411.53, -175388.66)" gradientUnits="userSpaceOnUse"><stop offset="0" stop-color="#de8530"/><stop offset="0.23" stop-color="#da832f"/><stop offset="0.45" stop-color="#ce7c2d"/><stop offset="0.68" stop-color="#ba702a"/><stop offset="0.9" stop-color="#9e6026"/><stop offset="1" stop-color="#8f5723"/></radialGradient></defs><title>Fusion_Lifecycle_2017_stacked_white</title><g class="cls-2"><g class="cls-3"><path class="cls-4" d="M12.66,61.64c-4.74,0-8.86-.47-10.13-1.15-0.85-9.37-1.22-36-1.1-41.49,1.93-1.09,8.17-2.81,8.64-2.89h0.09A114.78,114.78,0,0,1,28.3,18.29a1.22,1.22,0,0,1,.92,1c0.43,1.59,1.29,5.55,1.42,6.16-0.13.11-.77,0.47-3.68,0.47-0.95,0-2.06,0-3.3-.12-0.47,0-.94,0-1.38,0a10.92,10.92,0,0,0-6.39,1.64A4.17,4.17,0,0,0,14,30.46c-0.15,2.23,1,3.6,3.53,4.21,3.5,0.84,8.59,1.65,9.49,1.79l2.5,6.43a68.17,68.17,0,0,0-10.41,1.39C15,45.36,14.68,48,14.34,51.12l0,0.38a78.54,78.54,0,0,0,.11,10.12l-1.75,0"/></g><g class="cls-5"><rect class="cls-6" x="-18.87" y="22.55" width="49.37" height="32.64" transform="translate(-32.61 30.64) rotate(-69.4)"/></g><g class="cls-7"><rect class="cls-8" x="-15.06" y="9.68" width="54.85" height="58.33" transform="translate(-17.4 10.98) rotate(-29.24)"/></g><g class="cls-9"><rect class="cls-10" x="2.82" y="30.41" width="27.04" height="31.5"/></g><g class="cls-11"><rect class="cls-12" x="14.03" y="15.26" width="10.27" height="24.19" transform="translate(-10.54 42.61) rotate(-82.16)"/></g><g class="cls-3"><path class="cls-13" d="M14.58,61.9l-0.31-.47c-0.2-.31-0.49-0.75-0.85-1.33s-0.8-1.28-1.28-2.1-1-1.75-1.57-2.78-1.14-2.15-1.72-3.36C8.56,51.25,8.27,50.63,8,50L7.56,49c-0.14-.33-0.28-0.67-0.41-1-0.54-1.36-1-2.78-1.49-4.26C5.44,43,5.23,42.26,5,41.5S4.68,40,4.53,39.22a37.55,37.55,0,0,1-.59-4.62c0-.77-0.07-1.53-0.07-2.28s0-1.5.1-2.23a26.65,26.65,0,0,1,.66-4.17,24.75,24.75,0,0,1,1.16-3.6,22,22,0,0,1,1.42-2.86,21.14,21.14,0,0,1,1.37-2c0.41-.54.77-0.95,1-1.22l0.28-.31,0.1-.1-0.1.11-0.28.31c-0.24.28-.58,0.69-1,1.24A21.05,21.05,0,0,0,7.31,19.5a23.47,23.47,0,0,0-1.38,2.87A24.61,24.61,0,0,0,4.81,26a28.23,28.23,0,0,0-.63,4.14c-0.06.73-.09,1.47-0.09,2.21s0,1.51.07,2.27a37.48,37.48,0,0,0,.6,4.59q0.22,1.14.5,2.27c0.19,0.75.39,1.5,0.61,2.23,0.44,1.47.94,2.89,1.47,4.24S8.44,50.57,9,51.78s1.13,2.34,1.68,3.37,1.06,2,1.53,2.79,0.89,1.54,1.24,2.12l0.83,1.35,0.3,0.48"/></g><g class="cls-14"><rect class="cls-15" x="12.08" y="35.86" width="17.78" height="7.21"/></g><g class="cls-3"><path class="cls-13" d="M30.88,25.39s-0.66-.21-1.83-0.48a41.15,41.15,0,0,0-4.9-.84c-1-.11-2.14-0.19-3.32-0.2a24.5,24.5,0,0,0-3.69.23,16.4,16.4,0,0,0-3.81,1,11,11,0,0,0-3.43,2.14,9.71,9.71,0,0,0-1.34,1.53,10.42,10.42,0,0,0-1,1.76,11.54,11.54,0,0,0-.64,1.88,14.61,14.61,0,0,0-.34,1.91,19.91,19.91,0,0,0,0,3.69c0,0.59.11,1.16,0.18,1.7s0.16,1.08.25,1.58c0.18,1,.39,1.93.58,2.75s0.38,1.52.54,2.1,0.29,1,.38,1.34L8.62,48l-0.15-.47c-0.1-.31-0.24-0.76-0.42-1.33s-0.38-1.28-.6-2.09S7,42.34,6.82,41.33A29.18,29.18,0,0,1,6.35,38a20.12,20.12,0,0,1,0-3.73,13.78,13.78,0,0,1,.34-1.95,11.77,11.77,0,0,1,.66-1.92,10.66,10.66,0,0,1,1-1.79,9.92,9.92,0,0,1,1.37-1.56,11.21,11.21,0,0,1,3.5-2.17,16.47,16.47,0,0,1,3.87-1,24.66,24.66,0,0,1,3.72-.2,32.31,32.31,0,0,1,3.33.24c1,0.13,2,.28,2.78.44s1.54,0.32,2.12.47c1.17,0.29,1.82.51,1.82,0.51"/><path class="cls-13" d="M27.24,36.29l-2.4-.12-1.16-.06-1.3-.05L21.7,36,21,36l-0.71,0H18.13l-1.38,0-0.33,0H16.25L16.1,36a3.61,3.61,0,0,0-.6.17,3.15,3.15,0,0,0-1,.58,1.93,1.93,0,0,0-.19.18l-0.09.09,0,0,0,0L14,37.34l-0.12.19-0.05.09,0,0.09,0,0.09,0,0.09-0.06.17,0,0.16a2.16,2.16,0,0,0-.06.27l0,0.11v0s0-.07,0-0.11l0-.13a1.33,1.33,0,0,1,0-.15l0-.16,0.06-.17,0-.09,0-.09,0-.1,0-.1a2.81,2.81,0,0,1,.61-0.79,3.27,3.27,0,0,1,1-.63,3.74,3.74,0,0,1,.62-0.19l0.33-.06,0.33,0,0.69,0,0.7,0h2.16l0.71,0,0.7,0,0.69,0L23.69,36l1.16,0.09,1,0.09,0.76,0.07,0.49,0.05,0.17,0"/></g></g><path class="cls-16" d="M57.8,28.67H50.56l-1.8,5.72h-2l6.07-18.55h2.73l6.26,18.55H59.71ZM51.09,27h6.18l-3.13-9.73Z"/><path class="cls-16" d="M78.47,15.84V34.39H76.69l-0.13-2.31a7.2,7.2,0,0,1-5.7,2.62c-4.06,0-5.8-2.81-5.8-6.28V15.84h2V28.51c0,2.54,1.09,4.58,4.21,4.58a5.92,5.92,0,0,0,5.22-3V15.84h2Z"/><path class="cls-16" d="M95.69,17.48H90.15V34.39h-2V17.48H82.64V15.84h13v1.64Z"/><path class="cls-16" d="M112.89,23.13v4.08c0,4.16-2.23,7.5-7.21,7.5s-7.21-3.34-7.21-7.5V23.13c0-4.37,2.25-7.61,7.21-7.61S112.89,18.83,112.89,23.13Zm-12.43,0v4.16c0,3.26,1.54,5.83,5.22,5.83s5.22-2.57,5.22-5.83V23.1c0-3.42-1.54-6-5.22-6S100.46,19.63,100.46,23.1Z"/><path class="cls-16" d="M130.83,23.26v3.23c0,4.85-2.86,7.9-8.16,7.9h-4.61V15.84h5.27C128.32,15.84,130.83,18.81,130.83,23.26Zm-2-.05c0-3.55-1.88-5.75-5.62-5.75H120V32.77h2.62c4.06,0,6.18-2.17,6.18-6.23V23.21Z"/><path class="cls-16" d="M137.91,17.45V24h7.47v1.64h-7.47v7.1H146v1.62h-10V15.84h10v1.62h-8.06Z"/><path class="cls-16" d="M149.55,29.28h1.91c0.13,2,1.35,3.79,4.93,3.79s4.48-1.78,4.48-3.15V29.3c0-1.88-1.11-2.57-3.9-3.47L154.3,25c-2.86-1-4-2.15-4-4.4V20c0-2,1.7-4.45,6.2-4.45,4.21,0,6.25,2.28,6.39,5.22H161c-0.13-1.8-1.19-3.61-4.48-3.61s-4.19,1.62-4.19,2.84V20.5c0,1.38.82,2.17,3.37,3l2.68,0.85c3,1,4.53,2.2,4.53,4.82v0.66c0,2.49-1.83,4.88-6.47,4.88C152,34.71,149.77,32.51,149.55,29.28Z"/><path class="cls-16" d="M181.33,33l0,1.38a2.47,2.47,0,0,1-1.09.21c-1.22,0-1.93-.42-2.84-1.72l-5-7.37-2.62,3.29v5.62h-1.91V15.84h1.91V26.07l8.14-10.23H180l-6.47,8.22,5.54,8a1.76,1.76,0,0,0,1.67,1A3.06,3.06,0,0,0,181.33,33Z"/><path class="cls-16" d="M186.26,17.8v0.66a2,2,0,0,1-2.2,1.92,2,2,0,0,1-2.18-1.92V17.8a2.05,2.05,0,0,1,2.2-1.85A2,2,0,0,1,186.26,17.8Zm-0.32,0a1.68,1.68,0,0,0-1.87-1.57,1.74,1.74,0,0,0-1.87,1.57v0.67a1.69,1.69,0,0,0,1.87,1.63,1.66,1.66,0,0,0,1.87-1.63V17.8Zm-0.83,1.41h0.05v0.25a0.57,0.57,0,0,1-.2,0,0.41,0.41,0,0,1-.38-0.25l-0.43-.81H183.7v1h-0.34V16.88h0.74a0.75,0.75,0,0,1,.88.67v0.18a0.63,0.63,0,0,1-.48.63l0.39,0.73A0.22,0.22,0,0,0,185.12,19.21Zm-0.48-1.49V17.57a0.45,0.45,0,0,0-.55-0.4H183.7v1H184A0.48,0.48,0,0,0,184.64,17.72Z"/><path class="cls-16" d="M52,45.91v5.51h6.68V54H52v7.9H48.65V43.34H59.79v2.57H52Z"/><path class="cls-16" d="M77.27,43.34V61.89H74.32l-0.21-1.72a6.8,6.8,0,0,1-5,2.07C65,62.24,63,59.5,63,55.9V43.34h3.37V56c0,2.12.93,3.63,3.45,3.63a5,5,0,0,0,4.11-2.09V43.34h3.34Z"/><path class="cls-16" d="M81.12,56.43H84.3c0.11,1.7.93,3.21,4.13,3.21,2.84,0,3.55-1.33,3.55-2.39V56.67c0-1.56-.85-2.07-3.53-2.92l-2.68-.85c-2.84-.87-4-2.2-4-4.53V47.76c0-2.25,1.88-4.77,6.68-4.77,4.19,0,6.71,2,6.84,5.46H92.14c-0.13-1.59-1.06-3-3.68-3s-3.31,1.19-3.31,2.23v0.45c0,1,.66,1.7,3,2.39l2.68,0.82c3,1,4.56,2.39,4.56,5v0.69c0,2.81-2.31,5.17-6.92,5.17S81.36,60,81.12,56.43Z"/><path class="cls-16" d="M99.46,43.34h3.34V61.89H99.46V43.34Z"/><path class="cls-16" d="M122.36,50.55v4.16c0,4.32-2.52,7.53-7.63,7.53s-7.61-3.21-7.61-7.53V50.55c0-4.37,2.52-7.55,7.61-7.55S122.36,46.17,122.36,50.55Zm-11.9,0v4.24c0,2.92,1.35,4.9,4.27,4.9s4.27-2,4.27-4.9V50.52c0-3-1.38-5-4.27-5S110.46,47.53,110.46,50.52Z"/><path class="cls-16" d="M140.79,43.34V61.89h-3.87l-7.29-14.37V61.89h-2.94V43.34h4l7.13,13.91V43.34h3Z"/><path class="cls-16" d="M164.56,59.19v2.7H153.69V43.34H157V59.19h7.53Z"/><path class="cls-16" d="M167.92,43.34h3.34V61.89h-3.34V43.34Z"/><path class="cls-16" d="M179.6,45.91v5.51h6.68V54H179.6v7.9h-3.34V43.34h11.13v2.57H179.6Z"/><path class="cls-16" d="M194.24,45.91v5.27h6.92v2.57h-6.92v5.54h7.5v2.6H190.9V43.34h10.84v2.57h-7.5Z"/><path class="cls-16" d="M205,55.32V49.91c0-4.05,2.54-6.92,7.13-6.92,4.35,0,6.52,2.49,6.6,5.72h-3.15c-0.11-2-1.11-3.15-3.45-3.15s-3.74,1.67-3.74,4.13v5.83c0,2.46,1.3,4.11,3.68,4.11s3.45-1.19,3.55-3.18h3.18c-0.27,3.42-2.33,5.78-6.81,5.78S205,59.37,205,55.32Z"/><path class="cls-16" d="M229.67,54.31v7.58h-3.37V54.34l-5.94-11h3.5l4.21,8.4,4.13-8.4h3.37Z"/><path class="cls-16" d="M237.26,55.32V49.91c0-4.05,2.54-6.92,7.13-6.92,4.35,0,6.52,2.49,6.6,5.72h-3.15c-0.11-2-1.11-3.15-3.45-3.15s-3.74,1.67-3.74,4.13v5.83c0,2.46,1.3,4.11,3.68,4.11s3.45-1.19,3.55-3.18h3.18c-0.27,3.42-2.33,5.78-6.81,5.78S237.26,59.37,237.26,55.32Z"/><path class="cls-16" d="M265.74,59.19v2.7H254.88V43.34h3.34V59.19h7.53Z"/><path class="cls-16" d="M272.44,45.91v5.27h6.92v2.57h-6.92v5.54h7.5v2.6H269.1V43.34h10.84v2.57h-7.5Z"/></svg>